<?xml version="1.0" encoding="UTF-8"?>
<svg width="94px" height="114px" viewBox="0 0 94 114" version="1.1" xmlns="http://www.w3.org/2000/svg" xmlns:xlink="http://www.w3.org/1999/xlink">
    <!-- Generator: Sketch 51.1 (57501) - http://www.bohemiancoding.com/sketch -->
    <title>logo</title>
    <desc>Created with Sketch.</desc>
    <defs>
        <linearGradient x1="29.2772694%" y1="9.35808606%" x2="79.2732218%" y2="89.3354936%" id="linearGradient-1">
            <stop stop-color="#BBD2C5" offset="0%"></stop>
            <stop stop-color="#536976" offset="51.6957189%"></stop>
            <stop stop-color="#292E49" offset="100%"></stop>
        </linearGradient>
        <path d="M90.2744951,54 C86.5124444,74.4809443 68.568557,90 47,90 C22.699471,90 3,70.300529 3,46 C3,36.7139552 5.87663435,28.0997843 10.7873904,21 L45.75,21 C48.6494949,21 51,18.6494949 51,15.75 C51,12.8505051 48.6494949,10.5 45.75,10.5 L20.9997818,10.5 C28.2839086,5.15606985 37.2733845,2 47,2 C70.4615035,2 89.6341859,20.362626 90.9301692,43.5 L55.75,43.5 C52.8505051,43.5 50.5,45.8505051 50.5,48.75 C50.5,51.6494949 52.8505051,54 55.75,54 L90.2744951,54 Z M20.75,27 C17.8505051,27 15.5,29.3505051 15.5,32.25 C15.5,35.1494949 17.8505051,37.5 20.75,37.5 L76.75,37.5 C79.6494949,37.5 82,35.1494949 82,32.25 C82,29.3505051 79.6494949,27 76.75,27 L20.75,27 Z" id="path-2"></path>
        <filter x="-5.7%" y="-4.5%" width="111.4%" height="111.4%" filterUnits="objectBoundingBox" id="filter-3">
            <feOffset dx="0" dy="1" in="SourceAlpha" result="shadowOffsetOuter1"></feOffset>
            <feGaussianBlur stdDeviation="1.5" in="shadowOffsetOuter1" result="shadowBlurOuter1"></feGaussianBlur>
            <feColorMatrix values="0 0 0 0 0.607892215   0 0 0 0 0.607803345   0 0 0 0 0.607922554  0 0 0 1 0" type="matrix" in="shadowBlurOuter1"></feColorMatrix>
        </filter>
    </defs>
    <g id="Page-1" stroke="none" stroke-width="1" fill="none" fill-rule="evenodd">
        <g id="Combined-Shape">
            <use fill="black" fill-opacity="1" filter="url(#filter-3)" xlink:href="#path-2"></use>
            <use fill="url(#linearGradient-1)" fill-rule="evenodd" xlink:href="#path-2"></use>
        </g>
        <text id="DEBECAAN" transform="translate(47.000000, 106.500000) rotate(-360.000000) translate(-47.000000, -106.500000) " font-family="AndaleMono, Andale Mono" font-size="14" font-weight="normal" letter-spacing="-0.311111122" fill="#637982" fill-opacity="0.977326766">
            <tspan x="14" y="112">DEBECAAN</tspan>
        </text>
    </g>
</svg>